HIERARCHY
ROOT Hips
{
	OFFSET 0.000000 103.266502 0.000000
	CHANNELS 6 Xposition Yposition Zposition Xrotation Yrotation Zrotation 
	JOINT Spine
	{
		OFFSET -0.002400 12.777504 0.315300
		CHANNELS 3 Xrotation Yrotation Zrotation
		JOINT Spine1
		{
			OFFSET -0.002067 5.816869 0.032633
			CHANNELS 3 Xrotation Yrotation Zrotation
			JOINT Spine1_split
			{
				OFFSET -0.002067 5.816869 0.032633
				CHANNELS 3 Xrotation Yrotation Zrotation
				JOINT Spine2
				{
					OFFSET -0.002067 5.816869 0.032633
					CHANNELS 3 Xrotation Yrotation Zrotation
					JOINT Neck
					{
						OFFSET -0.003700 21.199493 -0.826900
						CHANNELS 3 Xrotation Yrotation Zrotation
						JOINT Head
						{
							OFFSET 0.000000 20.442200 4.834800
							CHANNELS 3 Xrotation Yrotation Zrotation
							JOINT HeadTop_End
							{
								OFFSET 0.000000 34.668396 4.968400
								CHANNELS 3 Xrotation Yrotation Zrotation
								End Site
								{
									OFFSET 0.000000 0.000000 0.000000
								}
							}
						}
					}
					JOINT LeftShoulder
					{
						OFFSET 3.288150 8.794197 -1.372250
						CHANNELS 3 Xrotation Yrotation Zrotation
						JOINT LeftShoulder_split
						{
							OFFSET 3.288150 8.794197 -1.372250
							CHANNELS 3 Xrotation Yrotation Zrotation
							JOINT LeftArm
							{
								OFFSET 11.953299 -2.279007 -0.146200
								CHANNELS 3 Xrotation Yrotation Zrotation
								JOINT LeftForeArm
								{
									OFFSET 18.448900 0.000000 0.000000
									CHANNELS 3 Xrotation Yrotation Zrotation
									JOINT LeftHand
									{
										OFFSET 29.527798 0.000000 0.000000
										CHANNELS 3 Xrotation Yrotation Zrotation
										JOINT LeftHandThumb1
										{
											OFFSET 10.739754 -2.369614 9.225399
											CHANNELS 3 Xrotation Yrotation Zrotation
											JOINT LeftHandThumb2
											{
												OFFSET 4.926170 -2.844131 2.844125
												CHANNELS 3 Xrotation Yrotation Zrotation
												JOINT LeftHandThumb3
												{
													OFFSET 4.614891 -2.664413 2.664409
													CHANNELS 3 Xrotation Yrotation Zrotation
													JOINT LeftHandThumb4
													{
														OFFSET 4.432465 -2.559082 2.559083
														CHANNELS 3 Xrotation Yrotation Zrotation
														End Site
														{
															OFFSET 0.000000 0.000000 0.000000
														}
													}
												}
											}
										}
										JOINT LeftHandIndex1
										{
											OFFSET 26.467674 0.187653 6.405298
											CHANNELS 3 Xrotation Yrotation Zrotation
											JOINT LeftHandIndex2
											{
												OFFSET 8.792900 0.000000 0.000000
												CHANNELS 3 Xrotation Yrotation Zrotation
												JOINT LeftHandIndex3
												{
													OFFSET 10.075203 0.000000 0.000000
													CHANNELS 3 Xrotation Yrotation Zrotation
													End Site
													{
														OFFSET 0.000000 0.000000 0.000000
													}
												}
											}
										}
										JOINT LeftHandMiddle1
										{
											OFFSET 25.764404 0.000000 0.000000
											CHANNELS 3 Xrotation Yrotation Zrotation
											JOINT LeftHandMiddle2
											{
												OFFSET 9.393974 0.000000 0.000000
												CHANNELS 3 Xrotation Yrotation Zrotation
												JOINT LeftHandMiddle3
												{
													OFFSET 10.771950 0.000000 0.000000
													CHANNELS 3 Xrotation Yrotation Zrotation
													End Site
													{
														OFFSET 0.000000 0.000000 0.000000
													}
												}
											}
										}
										JOINT LeftHandRing1
										{
											OFFSET 24.660927 0.144547 -6.225808
											CHANNELS 3 Xrotation Yrotation Zrotation
											JOINT LeftHandRing2
											{
												OFFSET 9.393799 0.000000 0.000000
												CHANNELS 3 Xrotation Yrotation Zrotation
												JOINT LeftHandRing3
												{
													OFFSET 9.928497 0.000000 0.000000
													CHANNELS 3 Xrotation Yrotation Zrotation
													End Site
													{
														OFFSET 0.000000 0.000000 0.000000
													}
												}
											}
										}
										JOINT LeftHandPinky1
										{
											OFFSET 23.655350 0.125290 -12.815412
											CHANNELS 3 Xrotation Yrotation Zrotation
											JOINT LeftHandPinky2
											{
												OFFSET 8.425102 0.000000 0.000000
												CHANNELS 3 Xrotation Yrotation Zrotation
												JOINT LeftHandPinky3
												{
													OFFSET 8.147003 0.000000 0.000000
													CHANNELS 3 Xrotation Yrotation Zrotation
													End Site
													{
														OFFSET 0.000000 0.000000 0.000000
													}
												}
											}
										}
									}
								}
							}
						}
					}
					JOINT RightShoulder
					{
						OFFSET -3.249400 8.794197 -1.372250
						CHANNELS 3 Xrotation Yrotation Zrotation
						JOINT RightShoulder_split
						{
							OFFSET -3.249400 8.794197 -1.372250
							CHANNELS 3 Xrotation Yrotation Zrotation
							JOINT RightArm
							{
								OFFSET -11.953299 -2.279007 -0.146200
								CHANNELS 3 Xrotation Yrotation Zrotation
								JOINT RightForeArm
								{
									OFFSET -18.448900 0.000000 0.000000
									CHANNELS 3 Xrotation Yrotation Zrotation
									JOINT RightHand
									{
										OFFSET -29.527802 0.000000 0.000000
										CHANNELS 3 Xrotation Yrotation Zrotation
										JOINT RightHandThumb1
										{
											OFFSET -10.739754 -2.369614 9.225399
											CHANNELS 3 Xrotation Yrotation Zrotation
											JOINT RightHandThumb2
											{
												OFFSET -4.926170 -2.844131 2.844125
												CHANNELS 3 Xrotation Yrotation Zrotation
												JOINT RightHandThumb3
												{
													OFFSET -4.614891 -2.664413 2.664409
													CHANNELS 3 Xrotation Yrotation Zrotation
													JOINT RightHandThumb4
													{
														OFFSET -4.432465 -2.559082 2.559083
														CHANNELS 3 Xrotation Yrotation Zrotation
														End Site
														{
															OFFSET 0.000000 0.000000 0.000000
														}
													}
												}
											}
										}
										JOINT RightHandIndex1
										{
											OFFSET -26.467674 0.187653 6.405298
											CHANNELS 3 Xrotation Yrotation Zrotation
											JOINT RightHandIndex2
											{
												OFFSET -8.792900 0.000000 0.000000
												CHANNELS 3 Xrotation Yrotation Zrotation
												JOINT RightHandIndex3
												{
													OFFSET -10.075203 0.000000 0.000000
													CHANNELS 3 Xrotation Yrotation Zrotation
													End Site
													{
														OFFSET 0.000000 0.000000 0.000000
													}
												}
											}
										}
										JOINT RightHandMiddle1
										{
											OFFSET -25.764404 0.000000 0.000000
											CHANNELS 3 Xrotation Yrotation Zrotation
											JOINT RightHandMiddle2
											{
												OFFSET -9.393974 0.000000 0.000000
												CHANNELS 3 Xrotation Yrotation Zrotation
												JOINT RightHandMiddle3
												{
													OFFSET -10.771950 0.000000 0.000000
													CHANNELS 3 Xrotation Yrotation Zrotation
													End Site
													{
														OFFSET 0.000000 0.000000 0.000000
													}
												}
											}
										}
										JOINT RightHandRing1
										{
											OFFSET -24.660927 0.144547 -6.225808
											CHANNELS 3 Xrotation Yrotation Zrotation
											JOINT RightHandRing2
											{
												OFFSET -9.393799 0.000000 0.000000
												CHANNELS 3 Xrotation Yrotation Zrotation
												JOINT RightHandRing3
												{
													OFFSET -9.928497 0.000000 0.000000
													CHANNELS 3 Xrotation Yrotation Zrotation
													End Site
													{
														OFFSET 0.000000 0.000000 0.000000
													}
												}
											}
										}
										JOINT RightHandPinky1
										{
											OFFSET -23.655350 0.125290 -12.815412
											CHANNELS 3 Xrotation Yrotation Zrotation
											JOINT RightHandPinky2
											{
												OFFSET -8.425102 0.000000 0.000000
												CHANNELS 3 Xrotation Yrotation Zrotation
												JOINT RightHandPinky3
												{
													OFFSET -8.147003 0.000000 0.000000
													CHANNELS 3 Xrotation Yrotation Zrotation
													End Site
													{
														OFFSET 0.000000 0.000000 0.000000
													}
												}
											}
										}
									}
								}
							}
						}
					}
				}
			}
		}
	}
	JOINT LeftUpLeg
	{
		OFFSET 11.394100 -6.187798 -0.413800
		CHANNELS 3 Xrotation Yrotation Zrotation
		JOINT LeftLeg
		{
			OFFSET 0.430247 -32.302673 3.732800
			CHANNELS 3 Xrotation Yrotation Zrotation
			JOINT LeftFoot
			{
				OFFSET -0.430247 -48.264931 -6.423300
				CHANNELS 3 Xrotation Yrotation Zrotation
				JOINT LeftToeBase
				{
					OFFSET 4.230900 -16.068199 23.438400
					CHANNELS 3 Xrotation Yrotation Zrotation
					JOINT LeftToe_End
					{
						OFFSET 4.510700 0.695400 19.974600
						CHANNELS 3 Xrotation Yrotation Zrotation
						End Site
						{
							OFFSET 0.000000 0.000000 0.000000
						}
					}
				}
			}
		}
	}
	JOINT RightUpLeg
	{
		OFFSET -11.333700 -6.187798 -0.413800
		CHANNELS 3 Xrotation Yrotation Zrotation
		JOINT RightLeg
		{
			OFFSET -0.430392 -32.302628 3.733000
			CHANNELS 3 Xrotation Yrotation Zrotation
			JOINT RightFoot
			{
				OFFSET 0.430392 -48.264973 -6.423500
				CHANNELS 3 Xrotation Yrotation Zrotation
				JOINT RightToeBase
				{
					OFFSET -4.230900 -16.068199 23.438400
					CHANNELS 3 Xrotation Yrotation Zrotation
					JOINT RightToe_End
					{
						OFFSET -4.510700 0.695400 19.974600
						CHANNELS 3 Xrotation Yrotation Zrotation
						End Site
						{
							OFFSET 0.000000 0.000000 0.000000
						}
					}
				}
			}
		}
	}
}
MOTION
Frames: 4
Frame Time: 0.016667
-0.413694 58.319717 0.079013 0.355533 -175.341160 -8.754277 4.010421 3.590408 -2.467465 8.138441 6.853468 -4.615298 0.000000 0.000000 0.000000 8.138442 6.853478 -4.615313 -3.924076 28.385120 6.948706 6.044267 35.632714 -22.310171 -0.000002 0.000000 0.000000 0.991963 -15.521569 -11.873505 0.000000 0.000000 0.000000 2.947337 -1.004907 -32.103784 39.921913 -32.872587 -2.089491 12.741842 10.294087 2.732619 -10.171817 -9.655300 9.007730 2.321120 6.714504 2.170924 0.000003 0.000006 -0.000004 0.000002 0.000001 0.000002 -0.823923 -6.584358 -6.418246 -0.126841 0.207664 -21.714391 0.000000 -0.000000 -0.000001 1.294501 -1.113038 -9.321272 -0.178448 -0.773447 -14.430120 0.000002 0.000000 0.000000 -0.565346 2.847726 -6.302099 -0.505479 -2.597473 -30.199511 0.000000 0.000000 -0.000001 -0.248817 5.894608 -1.054397 -0.699244 -5.770482 -39.699307 -0.000001 0.000000 0.000000 3.297407 -18.314891 12.160852 0.000000 0.000000 0.000000 12.768031 -13.236293 60.187053 30.213099 39.380163 -4.024292 19.052425 -1.510654 11.776103 -7.035187 1.739460 -10.279215 -0.642360 -0.093876 -1.289333 0.000005 0.000000 0.000000 0.000001 0.000002 0.000000 -3.340361 2.507665 5.478428 0.120534 -1.119644 16.859794 -0.000002 0.000001 -0.000000 -0.189046 -1.324941 0.979412 -0.357890 1.142263 22.115994 -0.000000 -0.000001 0.000000 1.946042 0.242696 1.015179 -0.619907 3.110099 28.344745 0.000004 -0.000001 -0.000001 4.839314 -1.854577 -3.962232 -1.320418 7.677256 37.620197 0.000001 0.000001 -0.000002 -102.398230 -18.020708 7.394570 115.599982 9.420581 3.736214 -10.349312 1.329560 -12.609064 -0.716695 1.160363 0.893053 -0.000000 -0.000001 -0.000000 -75.782807 18.775369 -21.039805 105.711910 -3.813476 -1.457127 -10.994065 -4.758075 30.188480 -9.248162 -3.094961 -0.191142 -0.000000 0.000002 0.000000 
-0.417366 58.321999 0.075490 0.325000 -175.327008 -8.769686 3.998874 3.590636 -2.465933 8.115213 6.854065 -4.611590 0.000000 0.000000 0.000000 8.115212 6.854066 -4.611586 -3.893995 28.384583 6.949291 6.058535 35.625946 -22.329912 0.000000 -0.000000 0.000000 0.983019 -15.541325 -11.895331 0.000000 0.000000 0.000000 2.965892 -0.975594 -32.060901 39.955586 -32.910587 -2.104586 12.745300 10.287320 2.740122 -10.172278 -9.653914 9.008303 2.321121 6.714506 2.170922 0.000002 0.000006 -0.000005 -0.000000 0.000001 0.000001 -0.828621 -6.612134 -6.414580 -0.126839 0.207664 -21.714392 -0.000002 0.000000 -0.000003 1.294512 -1.113000 -9.320918 -0.178448 -0.773448 -14.430122 0.000002 0.000000 -0.000001 -0.564485 2.847572 -6.300943 -0.505479 -2.597474 -30.199514 0.000000 -0.000000 0.000002 -0.248484 5.894465 -1.053937 -0.699243 -5.770482 -39.699307 -0.000001 0.000000 0.000001 3.299775 -18.344990 12.110440 0.000000 0.000000 0.000000 12.768930 -13.198105 60.241401 30.218260 39.297596 -4.016859 19.086219 -1.501094 11.733843 -7.041331 1.762637 -10.274686 -0.642358 -0.093876 -1.289332 0.000007 -0.000002 -0.000003 -0.000004 0.000000 -0.000001 -3.280158 2.555627 5.448237 0.120537 -1.119641 16.859798 -0.000000 -0.000002 0.000001 -0.085933 -1.307453 0.995300 -0.357897 1.142261 22.115995 0.000003 -0.000000 0.000000 1.946334 0.242910 1.016093 -0.619908 3.110099 28.344742 0.000002 -0.000001 0.000001 4.839141 -1.854397 -3.961750 -1.320419 7.677256 37.620197 0.000002 0.000002 -0.000001 -102.437032 -18.022468 7.372706 115.599750 9.423914 3.736345 -10.347615 1.327765 -12.601972 -0.715833 1.159676 0.892329 -0.000000 0.000000 0.000000 -75.786727 18.766100 -21.046610 105.704561 -3.823387 -1.453088 -11.002279 -4.760554 30.186834 -9.247653 -3.096597 -0.190626 0.000000 -0.000001 0.000000 
-0.416939 58.323158 0.070327 0.299954 -175.331216 -8.780206 3.988007 3.590367 -2.468047 8.093580 6.853822 -4.615531 0.000000 0.000000 0.000000 8.093577 6.853825 -4.615532 -3.941498 28.376332 6.975600 6.129567 35.633295 -22.332412 0.000003 -0.000000 0.000000 0.984360 -15.557356 -11.893243 0.000000 0.000000 0.000000 2.993943 -0.936734 -32.027761 39.996987 -32.956018 -2.104875 12.752503 10.324090 2.750426 -10.172762 -9.652537 9.008915 2.321124 6.714505 2.170922 0.000008 0.000005 -0.000005 0.000003 0.000001 0.000002 -0.833431 -6.640642 -6.410809 -0.126831 0.207664 -21.714392 0.000002 -0.000001 -0.000001 1.294510 -1.112974 -9.320517 -0.178446 -0.773448 -14.430117 0.000003 0.000000 -0.000000 -0.563589 2.847399 -6.299824 -0.505477 -2.597472 -30.199511 -0.000001 0.000001 0.000000 -0.248206 5.893931 -1.053434 -0.699242 -5.770481 -39.699307 -0.000000 0.000001 0.000001 3.302536 -18.350055 12.097408 0.000000 0.000000 0.000000 12.769792 -13.185347 60.268435 30.241277 39.257059 -4.029690 19.125786 -1.494291 11.725368 -7.048392 1.789086 -10.269481 -0.642364 -0.093876 -1.289331 0.000005 0.000001 -0.000002 -0.000002 -0.000000 0.000000 -3.217543 2.602795 5.419788 0.120535 -1.119645 16.859793 0.000002 -0.000000 -0.000000 0.019113 -1.289081 1.011199 -0.357892 1.142263 22.115992 -0.000000 0.000000 -0.000001 1.946585 0.243101 1.016870 -0.619902 3.110098 28.344747 0.000000 0.000000 0.000000 4.838917 -1.854205 -3.961328 -1.320417 7.677254 37.620197 -0.000001 -0.000000 0.000002 -102.461812 -18.029550 7.387649 115.602045 9.410313 3.735378 -10.352555 1.324755 -12.593820 -0.715141 1.159064 0.891068 -0.000000 -0.000002 0.000000 -75.806596 18.759430 -21.030789 105.706425 -3.834786 -1.448844 -11.013006 -4.762472 30.182777 -9.247135 -3.098229 -0.190074 -0.000000 0.000000 0.000000 
-0.417819 58.320595 0.064874 0.274276 -175.323197 -8.796102 3.978835 3.590347 -2.466962 8.075134 6.853914 -4.612892 0.000000 0.000000 0.000000 8.075137 6.853911 -4.612890 -3.925086 28.376670 6.958240 6.143538 35.639572 -22.329745 0.000000 0.000000 -0.000000 0.985484 -15.558951 -11.899332 0.000000 0.000000 0.000000 3.003078 -0.913854 -31.997059 40.016555 -32.998225 -2.121981 12.751320 10.346638 2.756606 -10.173240 -9.651249 9.009520 2.321120 6.714506 2.170921 0.000008 0.000006 -0.000004 -0.000001 0.000000 0.000000 -0.838431 -6.669856 -6.406888 -0.126835 0.207664 -21.714391 0.000001 -0.000001 -0.000000 1.294503 -1.112944 -9.320134 -0.178446 -0.773448 -14.430120 -0.000002 0.000001 -0.000001 -0.562654 2.847225 -6.298611 -0.505477 -2.597474 -30.199511 0.000000 -0.000001 0.000003 -0.247931 5.893320 -1.052753 -0.699238 -5.770481 -39.699313 -0.000002 0.000003 0.000001 3.306605 -18.371390 12.069625 0.000000 0.000000 0.000000 12.769774 -13.150460 60.289219 30.289949 39.220271 -4.043930 19.162118 -1.502709 11.706721 -7.056311 1.818823 -10.263618 -0.642363 -0.093878 -1.289333 0.000004 -0.000000 -0.000002 -0.000002 -0.000002 -0.000001 -3.152909 2.648909 5.393176 0.120536 -1.119642 16.859794 -0.000001 -0.000001 0.000000 0.125420 -1.270058 1.026999 -0.357898 1.142266 22.115994 0.000001 -0.000001 -0.000000 1.946793 0.243267 1.017457 -0.619909 3.110101 28.344745 -0.000003 0.000001 -0.000001 4.838694 -1.853953 -3.961036 -1.320415 7.677256 37.620200 -0.000001 -0.000001 -0.000001 -102.502104 -18.035079 7.401919 115.610569 9.385739 3.733798 -10.356956 1.316924 -12.572544 -0.713797 1.158522 0.891406 0.000000 -0.000002 -0.000000 -75.823303 18.741025 -21.041156 105.710592 -3.837825 -1.447076 -11.024094 -4.762344 30.174304 -9.246648 -3.090859 -0.187968 -0.000000 0.000000 -0.000000 
